<svg version="1.1" viewBox="0 0 219.51 214.69" xmlns="http://www.w3.org/2000/svg">
	<g transform="translate(0 -39.709)">
		<path d="m88.877 45.968c-0.16218-0.16218-0.29487-1.6367-0.29487-3.2767v-2.9818h44.984l-0.25642 6.3273-22.069 0.11305c-12.138 0.062176-22.201-0.019642-22.364-0.18182z"/>
		<path d="m88.763 58.751c-0.12543-0.32687-0.16836-1.7505-0.0954-3.1636l0.13266-2.5693h44.509l0.12821 3.1636 0.12821 3.1636h-22.287c-18.405 0-22.327-0.10354-22.515-0.59432z"/>
		<path d="m88.536 73.2c-0.1514-0.36141-0.18498-5.8774-0.03852-6.3273 0.13901-0.42696 5.0391-0.54545 22.557-0.54545 17.519 0 22.417 0.11846 22.555 0.54545 0.14398 0.44775 0.12159 3.233-0.0474 5.8909-0.0273 0.42885-4.8386 0.54545-22.507 0.54545-12.36 0-22.493-0.04909-22.518-0.10909z" fill="#666"/>
		<path d="m42.655 73.484c-1.14-1.0979-2.0727-2.1293-2.0727-2.2918 0-0.16255 2.6256-2.9157 5.8347-6.1182l5.8347-5.8227 1.1201 0.73394c0.61607 0.40367 1.6489 1.4272 2.2953 2.2746l1.1751 1.5407-5.833 5.845c-3.2081 3.2148-5.9339 5.8427-6.0572 5.8398-0.12334-0.0028-1.157-0.90348-2.297-2.0014z"/>
		<path d="m180.44 78.99-15.696-15.701 1.9351-1.9717c1.0643-1.0844 2.2389-1.9717 2.6102-1.9717s7.6407 6.9677 16.154 15.484l15.479 15.484-2.156 2.1889c-1.1858 1.2039-2.2626 2.1889-2.3929 2.1889-0.13028 0-7.3003-7.0655-15.933-15.701z"/>
		<path d="m23.882 92.61c-1.1349-1.1523-2.0635-2.2874-2.0635-2.5225s2.6511-3.0731 5.8913-6.3067l5.8913-5.8792 4.5738 4.5738-12.23 12.23z"/>
		<path d="m151.74 89.122c-3.2968-3.3031-5.9942-6.1716-5.9942-6.3744 0-0.47981 4.1787-4.6381 4.6608-4.6381 0.20297 0 3.1108 2.747 6.4619 6.1045l6.0928 6.1045-2.3747 2.4046c-1.3061 1.3225-2.4822 2.4046-2.6136 2.4046-0.13142 0-2.9363-2.7025-6.2331-6.0056z" fill="#666"/>
		<path d="m170.84 88.583-15.703-15.708 4.5788-4.5788 31.615 31.615-2.1568 2.1897c-1.1862 1.2043-2.2634 2.1897-2.3936 2.1897-0.13028 0-7.3032-7.0684-15.94-15.708z"/>
		<path d="m32.938 102.1-2.1568-2.1897 31.573-31.573 4.5788 4.5788-15.682 15.687c-8.6253 8.6278-15.789 15.687-15.919 15.687-0.13027 0-1.2074-0.98537-2.3936-2.1897z"/>
		<path d="m170.4 107.78-6.098-6.1096 2.5032-2.5032 2.5032-2.5032 6.1096 6.098c3.3603 3.3539 6.1096 6.3043 6.1096 6.5566 0 0.5752-4.0235 4.5713-4.6026 4.5713-0.23497 0-3.1713-2.7493-6.5252-6.1096z" fill="#666"/>
		<path d="m42.32 111.92-2.3772-2.4071 32.053-32.053 5.0152 5.0152-15.922 15.926c-8.7568 8.7593-16.027 15.926-16.157 15.926-0.12943 0-1.3051-1.0832-2.6126-2.4071z" fill="#666"/>
		<path d="m212.95 135.98v-8.4924l3.1111-0.1449c1.8709-0.0871 3.1796 0.0346 3.2829 0.30551 0.0945 0.24772 0.11812 4.0768 0.0525 8.5091l-0.1193 8.0587-6.3273 0.25642z"/>
		<path d="m14.272 144.16c-0.16983-0.16983-0.30878-4.007-0.30878-8.527v-8.2182h6.5643l-0.23703 16.8-2.8549 0.12697c-1.5702 0.0698-2.9938-0.012-3.1636-0.18182z"/>
		<path d="m185.76 144.6c-0.16951-0.16951-0.30821-4.2028-0.30821-8.9628v-8.6546h6.9999l-0.11812 8.8364-0.11813 8.8364-3.0736 0.12639c-1.6905 0.0695-3.2123-0.0123-3.3818-0.18182z" fill="#666"/>
		<path d="m212.95 162.55c0-4.68 0.14728-8.5232 0.32728-8.5403 0.18-0.0172 1.6036-0.0618 3.1636-0.0992l2.8364-0.0679 0.11831 8.6083 0.11832 8.6082h-6.5639z"/>
		<path d="m14.064 162.45 0.11832-8.6011 6.1091 0.0602 0.11832 8.571 0.11832 8.571h-6.5824z"/>
		<path d="m199.42 149.24v-22.255h6.5455v44.509h-6.5455z"/>
		<path d="m185.75 171.2c-0.16-0.16-0.29091-4.1854-0.29091-8.9454v-8.6546h6.9818v17.891h-3.2c-1.76 0-3.3309-0.13091-3.4909-0.29091z" fill="#666"/>
		<path d="m0 149.24v-22.255h6.5455v44.509h-6.5455z"/>
		<path d="m27.363 171.65c-0.16952-0.16952-0.30821-10.388-0.30821-22.708v-22.4h6.9897l-0.11302 22.582-0.11302 22.582-3.0736 0.12639c-1.6905 0.0695-3.2123-0.0123-3.3818-0.18181z" fill="#666"/>
		<path d="m166.33 198.46c-1.2425-1.249-2.259-2.445-2.259-2.6579 0-0.51824 11.544-12.089 12.061-12.089 0.22305 0 1.4328 1.0402 2.6883 2.3115l2.2828 2.3115-6.2025 6.1976c-3.4114 3.4087-6.2269 6.1976-6.2568 6.1976s-1.0709-1.0219-2.3134-2.2709z" fill="#666"/>
		<path d="m175.7 207.65-2.1173-2.1462 5.8264-5.8749c3.2045-3.2312 6.0301-5.8767 6.2791-5.8789 0.24902-2e-3 1.3761 0.93345 2.5046 2.0792l2.0518 2.0831-6.0011 5.9896c-3.3006 3.2943-6.0968 5.9682-6.2136 5.9419-0.11689-0.0262-1.1653-1.0135-2.3298-2.1938z"/>
		<path d="m37.812 203.93-5.9889-5.982 4.5121-4.5688 5.8293 5.7458c3.2061 3.1602 5.8306 5.9496 5.8323 6.1986 0.0017 0.24902-0.9417 1.3833-2.0964 2.5206l-2.0994 2.0678z"/>
		<path d="m147.07 217.11-2.3525-2.3821 6.0727-6.127c3.34-3.3698 6.2782-6.127 6.5293-6.127 0.59447 0 4.5692 4.035 4.5692 4.6385 0 0.48497-11.714 12.38-12.191 12.38-0.1511 0-1.3334-1.0719-2.6272-2.3821z" fill="#666"/>
		<path d="m28.257 213.49c-3.374-3.3839-5.8359-6.1862-5.6512-6.4324 0.18002-0.24 1.2107-1.2685 2.2903-2.2856l1.963-1.8492 11.987 12.01-4.6106 4.5534z"/>
		<path d="m56.771 204.29c-8.664-8.6591-15.753-16.004-15.753-16.322 0-0.61357 3.9325-4.691 4.5243-4.691 0.46279 0 31.694 31.279 31.694 31.743 0 0.19786-1.0604 1.407-2.3564 2.6869l-2.3564 2.3271z" fill="#666"/>
		<path d="m116.07 224.28v-3.5l17.622 0.23626 0.0409 2.8364c0.0225 1.56-0.0362 3.0818-0.13033 3.3818-0.12943 0.41234-2.2896 0.54545-8.8518 0.54545h-8.6806z" fill="#666"/>
		<path d="m89.309 227.49c-0.16-0.16-0.29091-1.7309-0.29091-3.4909v-3.2h17.891v6.9818h-8.6545c-4.76 0-8.7855-0.13091-8.9455-0.29091z" fill="#666"/>
		<path d="m156.87 226.47-2.1582-2.1912 5.8736-5.8857c3.2305-3.2371 6.08-5.8857 6.3324-5.8857s1.3891 0.94447 2.5261 2.0988l2.0672 2.0988-5.9193 5.8648c-3.2556 3.2256-6.0643 5.9158-6.2414 5.978-0.17717 0.0623-1.2933-0.87281-2.4803-2.0779z"/>
		<path d="m56.595 222.68-6.0029-5.9717 2.0694-2.101c1.1382-1.1556 2.2732-2.0964 2.5222-2.0909 0.24902 6e-3 3.0959 2.6569 6.3264 5.8918l5.8736 5.8817-2.1481 2.1809c-1.1815 1.1995-2.2583 2.1809-2.3929 2.1809s-2.9461-2.6873-6.2477-5.9717z"/>
		<path d="m47.007 232.24-5.9996-6.0111 2.0931-2.0617c1.1512-1.1339 2.2855-2.0617 2.5206-2.0617s3.0705 2.6486 6.301 5.8857l5.8736 5.8857-2.1541 2.187c-1.1848 1.2029-2.2623 2.187-2.3946 2.187s-2.9402-2.705-6.24-6.0111z"/>
		<path d="m166.36 236.4-2.2766-2.3052 15.644-15.639c13.975-13.971 15.737-15.589 16.516-15.172 0.94313 0.50475 3.6103 3.3856 3.6103 3.8996 0 0.1729-7.0239 7.3362-15.609 15.918l-15.609 15.604z"/>
		<path d="m116.07 238.05v-3.282h17.493l-0.12821 3.1636-0.12821 3.1636-17.236 0.23663z"/>
		<path d="m89.745 241.02c-0.16-0.16-0.29091-1.6327-0.29091-3.2727v-2.9818h17.018v6.5455h-8.2182c-4.52 0-8.3491-0.13091-8.5091-0.29091z"/>
		<path d="m116.16 251.24 0.12821-3.1636h17.018l0.12821 3.1636 0.12821 3.1636h-17.531z"/>
		<path d="m89.545 251.24 0.12821-3.1636 16.8-0.23702v6.5643h-17.056z"/>
	</g>
</svg>